<?xml version="1.0" encoding="UTF-8"?>
<svg version="1.1" xmlns="http://www.w3.org/2000/svg" width="32" height="32">
<path d="M0 0 C4.61581142 2.18643699 6.72864085 4.49599804 9 9 C9.82885269 14.54808604 9.7240695 19.47140883 7.3125 24.5625 C4.21064779 27.8320199 1.61649202 29.75850523 -2.90234375 30.43359375 C-9.05071801 30.44150672 -13.31314296 30.4465054 -18 26 C-21.88937897 20.55860924 -21.79042609 15.48149391 -21 9 C-16.63929544 -0.20593186 -9.3488659 -1.1401056 0 0 Z M-14 11 C-13.27285258 14.23242997 -13.27285258 14.23242997 -10.25 15.75 C-6.70930301 17.11180653 -5.50700623 17.25892532 -2 16 C0.74572728 14.52012037 0.74572728 14.52012037 3 13 C-3.09541905 6.22731217 -6.59070108 6.55074358 -14 11 Z M-12 16 C-12 17.32 -12 18.64 -12 20 C-8.61056802 21.8386571 -8.61056802 21.8386571 -5 23 C-1.5969415 21.84237864 -1.5969415 21.84237864 1 20 C0.67 18.68 0.34 17.36 0 16 C-0.556875 16.350625 -1.11375 16.70125 -1.6875 17.0625 C-5.44318137 18.58507353 -8.2832512 17.23891627 -12 16 Z M-15 20 C-14 22 -14 22 -14 22 Z " fill="#000000" transform="translate(22,1)"/>
</svg>
